Coordinates
version=1
nRows=11
nColumns=36
inDegrees=yes

Units are S.I. units (second, meters, Newtons, ...)
If the header above contains a line with 'inDegrees', this indicates whether rotational values are in degrees (yes) or radians (no).

endheader
time	pelvis_tilt	pelvis_list	pelvis_rotation	pelvis_tx	pelvis_ty	pelvis_tz	hip_flexion_r	hip_adduction_r	hip_rotation_r	knee_angle_r	knee_angle_r_beta	ankle_angle_r	subtalar_angle_r	mtp_angle_r	hip_flexion_l	hip_adduction_l	hip_rotation_l	knee_angle_l	knee_angle_l_beta	ankle_angle_l	subtalar_angle_l	mtp_angle_l	lumbar_extension	lumbar_bending	lumbar_rotation	arm_flex_r	arm_add_r	arm_rot_r	elbow_flex_r	pro_sup_r	arm_flex_l	arm_add_l	arm_rot_l	elbow_flex_l	pro_sup_l
      4.93333330	      4.55182606	     -0.34196171	      0.09546117	     -0.12306445	      0.66676846	      0.13092736	     39.76163137	    -16.72717937	     -7.77520672	     82.46095395	      1.43921515	     37.79737496	     -3.44979201	     -7.49999987	     40.25740874	    -15.26636814	     -2.99875283	     83.01661784	      1.44891332	     35.59870020	    -11.17850599	     -7.49999987	    -40.60889064	      0.64592280	     -0.75446814	    111.62131379	      4.23424668	     70.12757288	    116.52978812	    102.61056018	    103.19989448	      8.24207823	     67.41196407	    119.87616712	     92.99050236
      4.95000000	      4.49755992	     -0.44120202	     -0.10863414	     -0.12178093	      0.65412490	      0.13177808	     41.52479486	    -17.04663907	     -7.20988701	     85.76140492	      1.49681889	     39.04489444	     -3.14178722	     -7.49999987	     42.09917302	    -15.83210041	     -2.50359604	     86.12019968	      1.50308104	     36.47285644	    -11.30419693	     -7.49999987	    -41.65526604	      0.44474846	     -1.16315223	    112.52065553	      4.83258300	     70.19887830	    117.03610968	    102.56331528	    103.73718585	      7.87027848	     66.05765305	    119.68308375	     92.64048506
      4.96666670	      4.83381304	     -0.53100793	     -0.20680639	     -0.12446718	      0.64208333	      0.13090220	     43.02588047	    -17.34342874	     -6.61052490	     88.73259514	      1.54867594	     40.17377911	     -2.80519546	     -7.49999987	     43.62628540	    -16.28950754	     -2.00366475	     89.04831940	      1.55418637	     37.44456295	    -11.08249018	     -7.49999987	    -42.88056660	      0.51675156	     -1.68093679	    113.59127648	      5.10916399	     70.00546266	    116.33052196	    102.47742223	    104.37847649	      6.60659855	     64.56228731	    116.45916289	     92.23794734
      4.98333330	      4.86322146	     -0.67480099	     -0.28473612	     -0.12176503	      0.62746468	      0.13049232	     44.88202479	    -17.80831296	     -6.09769935	     91.92551441	      1.60440289	     41.18807983	     -2.22192256	     -7.49999987	     45.22008417	    -16.86472792	     -1.43200100	     91.98254009	      1.60539818	     39.38989441	     -9.00134465	     -7.49999987	    -43.26469885	      0.47153756	     -1.63045180	    113.49327605	      5.23036468	     70.22560012	    115.92439361	    102.03081329	    103.73136156	      6.77478740	     62.86642896	    111.85396013	     90.58194415
      5.00000000	      5.48529728	     -0.71464945	     -0.10342048	     -0.12269595	      0.61599374	      0.13067965	     46.06874637	    -18.27525222	     -5.61770550	     94.85306115	      1.65549822	     42.45956798	     -1.80525236	     -7.49999987	     46.46768452	    -17.34374690	     -0.80200047	     94.92766039	      1.65680023	     40.82706941	     -7.66453844	     -7.49999987	    -44.38185854	      0.36469512	     -1.70139342	    113.71400267	      4.86162602	     70.31826600	    115.76353387	    100.13829487	    103.70496096	      6.88765538	     62.12066787	    111.13990059	     88.83333479
      5.01666670	      5.68235895	     -0.71889343	      0.19320090	     -0.12786386	      0.60465158	      0.13092649	     47.64294650	    -18.65357270	     -5.16235834	     97.39587030	      1.69987861	     43.52288362	     -1.52028454	     -7.49999987	     48.23467890	    -17.64183126	     -0.10728732	     97.64041239	      1.70414668	     41.70213156	     -6.58727315	     -7.49999987	    -45.40320902	      0.42629900	     -1.53234616	    114.52040683	      4.68883465	     70.57745697	    116.92876612	    100.17481125	    104.20523934	      7.58542411	     62.19294553	    112.78440752	     88.44517419
      5.03333330	      6.52604759	     -0.81073946	      0.61280629	     -0.12846315	      0.59400175	      0.13068376	     48.22916286	    -19.17812393	     -4.81259280	     99.79968910	      1.74183317	     44.53204419	     -1.08920036	     -7.49999987	     49.33138488	    -18.04631482	      0.78969666	    100.46919071	      1.75351817	     41.95758958	     -6.15856471	     -7.49999987	    -46.57138694	      0.59374299	     -1.21902863	    114.80091283	      4.11956814	     70.88615708	    117.04673884	     98.66032230	    104.47222457	      8.28426040	     63.22321412	    114.25142222	     87.46520995
      5.05000000	      6.91922377	     -0.85500031	      0.88793119	     -0.12762750	      0.58432657	      0.13077093	     49.09526246	    -19.48524852	     -4.42340797	    101.94731182	      1.77931625	     45.27527107	     -0.93406695	     -7.49999987	     50.38254211	    -18.52267045	      1.37325551	    102.70782763	      1.79258976	     42.19354153	     -6.09379069	     -7.49999987	    -47.58163769	      0.93383411	     -1.50457168	    114.95457670	      4.22711323	     70.83851419	    116.68272116	     98.70477177	    105.17403359	      7.55509622	     63.37586343	    112.51878052	     87.37923276
      5.06666670	      7.12298236	     -0.97070451	      1.21246301	     -0.12934312	      0.57117111	      0.13020049	     50.34345979	    -19.99892099	     -4.02726787	    104.46134257	      1.82319437	     46.10157299	     -0.40425366	     -7.49999987	     51.89269923	    -18.89090926	      2.45473813	    105.21035562	      1.83626711	     42.86927373	     -5.38119990	     -7.49999987	    -48.17481943	      1.09719459	     -1.43933800	    114.73673291	      4.12720346	     71.13699305	    116.96269533	     98.79359691	    105.81388914	      8.20978721	     65.58922499	    113.74040303	     87.37067256
      5.08333330	      7.32010287	     -0.98977810	      1.59613993	     -0.12914997	      0.55918782	      0.13070846	     51.62881510	    -20.48326327	     -3.48441860	    107.08324220	      1.86895515	     46.77068658	     -0.63378252	     -7.49999987	     53.49759217	    -19.16166225	      3.42150523	    107.71457303	      1.87997395	     43.40047427	     -4.81559905	     -7.49999987	    -48.83069393	      1.25213756	     -1.64916876	    114.96005644	      4.36879408	     71.26203093	    117.44172243	     98.84133269	    106.82082705	      8.49859821	     67.64924122	    115.29711920	     87.47448091
      5.10000000	      7.50940379	     -0.93705803	      1.92119602	     -0.13041573	      0.54532641	      0.13044286	     53.18512766	    -20.99666029	     -2.72811108	    109.81254931	      1.91659055	     47.38129943	     -0.84930602	     -7.49999987	     55.24449704	    -19.32435179	      4.35534056	    110.29869588	      1.92507540	     44.09284872	     -4.34628010	     -7.49999987	    -49.56562672	      1.47148245	     -1.81777627	    115.40192400	      4.35268291	     70.92321138	    116.91716611	     98.82924245	    107.78039342	      8.40506584	     68.00863667	    114.86325833	     87.47552014
